<?xml version="1.0" encoding="UTF-8"?>
<svg id="Layer_2" xmlns="http://www.w3.org/2000/svg" xmlns:xlink="http://www.w3.org/1999/xlink" viewBox="0 0 1250.38 230.83">
  <defs>
    <style>
      .cls-1 {
        fill: url(#linear-gradient-2);
      }

      .cls-2 {
        fill: #26356e;
      }

      .cls-3 {
        fill: url(#linear-gradient-4);
      }

      .cls-4 {
        fill: url(#linear-gradient-3);
      }

      .cls-5 {
        fill: url(#linear-gradient-5);
      }

      .cls-6 {
        fill: url(#linear-gradient-8);
      }

      .cls-7 {
        fill: url(#linear-gradient-7);
      }

      .cls-8 {
        fill: url(#linear-gradient-9);
      }

      .cls-9 {
        fill: url(#linear-gradient-6);
      }

      .cls-10 {
        fill: url(#linear-gradient);
      }
    </style>
    <linearGradient id="linear-gradient" x1="107.82" y1="78.44" x2="126.57" y2="78.44" gradientUnits="userSpaceOnUse">
      <stop offset="0" stop-color="#2e6294"/>
      <stop offset="1" stop-color="#284275"/>
    </linearGradient>
    <linearGradient id="linear-gradient-2" x1="78.2" y1="87.93" x2="104.05" y2="87.93" xlink:href="#linear-gradient"/>
    <linearGradient id="linear-gradient-3" x1="57.63" y1="111.96" x2="96.87" y2="111.96" xlink:href="#linear-gradient"/>
    <linearGradient id="linear-gradient-4" x1="64.82" y1="139.29" x2="99.32" y2="139.29" xlink:href="#linear-gradient"/>
    <linearGradient id="linear-gradient-5" x1="93.24" y1="157.12" x2="113.4" y2="157.12" xlink:href="#linear-gradient"/>
    <linearGradient id="linear-gradient-6" x1="120.99" y1="157.12" x2="141.15" y2="157.12" xlink:href="#linear-gradient"/>
    <linearGradient id="linear-gradient-7" x1="135.07" y1="139.29" x2="169.57" y2="139.29" xlink:href="#linear-gradient"/>
    <linearGradient id="linear-gradient-8" x1="137.52" y1="111.96" x2="176.76" y2="111.96" xlink:href="#linear-gradient"/>
    <linearGradient id="linear-gradient-9" x1="130.34" y1="87.94" x2="156.2" y2="87.94" xlink:href="#linear-gradient"/>
  </defs>
  <g id="Layer_1-2" data-name="Layer_1">
    <g>
      <g>
        <path class="cls-2" d="M694.28,172.09c-8.21,0-15.71-1.44-22.49-4.32-6.78-2.88-12.63-6.94-17.55-12.19-4.92-5.24-8.71-11.42-11.36-18.52-2.65-7.11-3.98-14.88-3.98-23.33s1.33-16.22,3.98-23.33c2.65-7.1,6.44-13.29,11.36-18.56,4.92-5.27,10.77-9.34,17.55-12.22,6.78-2.88,14.28-4.32,22.49-4.32s15.69,1.44,22.45,4.32c6.76,2.88,12.59,6.96,17.52,12.22,4.92,5.27,8.72,11.46,11.4,18.56,2.68,7.11,4.02,14.88,4.02,23.33s-1.34,16.21-4.02,23.29c-2.68,7.08-6.48,13.26-11.4,18.52-4.92,5.27-10.76,9.34-17.52,12.22s-14.24,4.32-22.45,4.32ZM694.28,165.98c7.29,0,13.91-1.32,19.85-3.95,5.94-2.63,11.01-6.32,15.22-11.07s7.45-10.3,9.71-16.66c2.27-6.36,3.4-13.22,3.4-20.57s-1.13-14.29-3.4-20.65c-2.27-6.36-5.51-11.91-9.71-16.66-4.21-4.74-9.28-8.45-15.22-11.11-5.94-2.66-12.56-3.99-19.85-3.99s-13.99,1.33-19.93,3.99c-5.94,2.66-11.01,6.35-15.22,11.07-4.21,4.72-7.43,10.27-9.68,16.66-2.25,6.39-3.37,13.28-3.37,20.68s1.12,14.27,3.37,20.61c2.24,6.34,5.47,11.88,9.68,16.62s9.28,8.44,15.22,11.07c5.94,2.63,12.58,3.95,19.93,3.95Z"/>
        <path class="cls-2" d="M768.63,170.53v-81.99h6.42v14.24h.46c1.68-2.68,3.84-5.2,6.46-7.57,2.62-2.36,5.83-4.27,9.6-5.74,3.77-1.46,8.21-2.2,13.31-2.2,6.07,0,11.14,1.08,15.22,3.24,4.08,2.16,7.12,5.13,9.14,8.91,2.01,3.78,3.02,8.1,3.02,12.97v58.14h-6.43v-57.47c0-6.56-2.01-11.58-6.04-15.06-4.03-3.48-9.54-5.22-16.52-5.22-5.66,0-10.59,1.13-14.8,3.39-4.21,2.26-7.48,5.17-9.83,8.72s-3.52,7.32-3.52,11.29v54.34h-6.5Z"/>
        <path class="cls-2" d="M855.83,170.53V56.94h47.42c7.09,0,13.28,1.22,18.59,3.65,5.3,2.44,9.43,5.94,12.39,10.51,2.96,4.57,4.44,10.06,4.44,16.47,0,7.26-1.8,13.37-5.39,18.34-3.6,4.97-9.42,8.35-17.48,10.14v.37c4.59.89,8.31,2.5,11.17,4.81,2.85,2.31,4.97,5.32,6.35,9.02,1.38,3.7,2.19,8.14,2.45,13.3.2,5.32.47,9.62.8,12.9.33,3.28.73,5.84,1.19,7.68.46,1.84.93,3.18,1.42,4.03.48.84.98,1.49,1.49,1.94v.45h-7.65c-.61-.6-1.2-1.6-1.76-3.02-.56-1.42-1.06-3.91-1.49-7.49-.43-3.58-.78-8.89-1.03-15.95-.36-8.1-2.51-14.24-6.46-18.41-3.95-4.17-10.37-6.26-19.24-6.26h-40.08v51.13h-7.11ZM862.95,113.58h37.71c10.45,0,18.19-2.24,23.21-6.71,5.02-4.47,7.54-10.68,7.54-18.63s-2.58-14.4-7.73-18.75c-5.15-4.35-12.44-6.52-21.88-6.52h-38.86v50.61Z"/>
        <path class="cls-2" d="M982.27,171.87c-5.3,0-10.03-.88-14.19-2.65-4.16-1.76-7.41-4.3-9.75-7.6-2.35-3.3-3.52-7.29-3.52-11.96,0-5.81,1.46-10.31,4.4-13.49,2.93-3.18,6.92-5.54,11.97-7.08,5.05-1.54,10.73-2.68,17.06-3.43,6.17-.79,11.13-1.65,14.88-2.57,3.75-.92,6.47-2.25,8.18-3.99,1.71-1.74,2.56-4.1,2.56-7.08,0-6.21-1.89-11.07-5.66-14.57-3.77-3.5-9.46-5.25-17.06-5.25-8.06,0-14.19,1.71-18.4,5.14s-6.57,8.5-7.08,15.21h-6.42c.25-4.52,1.49-8.7,3.71-12.52,2.22-3.83,5.62-6.92,10.21-9.28,4.59-2.36,10.56-3.54,17.9-3.54,4.38,0,8.29.49,11.7,1.45,3.42.97,6.35,2.4,8.8,4.29,2.8,2.09,4.91,4.78,6.31,8.09,1.4,3.3,2.1,7.19,2.1,11.67v44.42c0,3.23.5,5.6,1.49,7.12s2.69,2.27,5.09,2.27c.87,0,1.68-.11,2.45-.33.77-.22,1.38-.43,1.84-.63h.38v4.77c-.66.3-1.53.57-2.6.82-1.07.25-2.27.37-3.6.37-2.96,0-5.24-.63-6.85-1.9-1.61-1.27-2.73-2.92-3.37-4.96-.64-2.04-.96-4.17-.96-6.41v-6.71l1.61,2.76h-1.76c-1.99,4.97-5.74,9.14-11.24,12.52-5.51,3.38-12.24,5.07-20.19,5.07ZM983.5,166.95c6.07,0,11.38-1.17,15.95-3.5,4.56-2.33,8.11-5.47,10.63-9.39,2.52-3.92,3.79-8.35,3.79-13.27v-18.41c-.97,1.04-2.4,2.04-4.28,2.98-1.89.94-4.42,1.81-7.61,2.61-3.19.8-7.25,1.54-12.2,2.24-6.07.75-11.19,1.8-15.37,3.17-4.18,1.37-7.34,3.32-9.49,5.85s-3.21,5.99-3.21,10.36,1.11,7.83,3.33,10.36c2.22,2.53,5.01,4.34,8.38,5.4,3.37,1.07,6.73,1.6,10.1,1.6Z"/>
        <path class="cls-2" d="M1044.54,170.53v-81.99h6.42v14.39h.46c1.48-2.73,3.43-5.29,5.85-7.68,2.42-2.39,5.38-4.31,8.87-5.78,3.49-1.46,7.56-2.2,12.2-2.2,6.37,0,11.45,1.54,15.22,4.62,3.77,3.08,6.27,7.21,7.5,12.37h.31c2.29-4.82,5.83-8.86,10.59-12.11,4.77-3.25,10.47-4.88,17.1-4.88,5.56,0,10.15,1.08,13.77,3.24,3.62,2.16,6.32,5.13,8.11,8.91,1.78,3.78,2.68,8.1,2.68,12.97v58.14h-6.5v-57.62c0-6.46-1.75-11.43-5.24-14.91-3.49-3.48-8.22-5.22-14.19-5.22-5,0-9.41,1.12-13.23,3.35-3.83,2.24-6.8,5.13-8.91,8.68-2.12,3.55-3.17,7.27-3.17,11.14v54.56h-6.5v-57.62c0-6.46-1.68-11.43-5.05-14.91-3.37-3.48-8.06-5.22-14.07-5.22-4.95,0-9.37,1.12-13.27,3.35-3.9,2.24-6.95,5.13-9.14,8.68-2.19,3.55-3.29,7.27-3.29,11.14v54.56h-6.5Z"/>
        <path class="cls-2" d="M1175.87,197.29v-108.75h6.42v21.02h.38c1.78-5.02,4.27-9.19,7.46-12.52,3.19-3.33,6.87-5.81,11.05-7.45,4.18-1.64,8.57-2.46,13.16-2.46,6.53,0,12.52,1.58,17.97,4.73,5.46,3.16,9.83,7.86,13.12,14.12,3.29,6.26,4.93,14.09,4.93,23.48,0,8.65-1.54,16.16-4.63,22.55-3.09,6.39-7.36,11.33-12.81,14.83-5.46,3.5-11.78,5.25-18.97,5.25s-13.99-1.95-19.62-5.85c-5.63-3.9-9.55-9.1-11.74-15.62h-.38c.05,2.39.09,4.92.12,7.6.02,2.68.04,5.54.04,8.57v30.49h-6.5ZM1213.35,166.65c5.97,0,11.22-1.53,15.76-4.58,4.54-3.06,8.11-7.35,10.71-12.89,2.6-5.54,3.9-12.04,3.9-19.49,0-8.2-1.35-15.03-4.05-20.5-2.7-5.46-6.35-9.59-10.94-12.37-4.59-2.78-9.74-4.17-15.45-4.17-6.27,0-11.74,1.58-16.41,4.73-4.67,3.16-8.3,7.53-10.9,13.12s-3.9,12.06-3.9,19.42,1.27,13.65,3.82,19.19c2.55,5.54,6.16,9.85,10.82,12.93,4.67,3.08,10.21,4.62,16.64,4.62Z"/>
      </g>
      <g>
        <path class="cls-2" d="M270.18,170.53V56.94h87.43v21.69h-60.81v22.58h52.63v20.65h-52.63v26.39h61.88v22.29h-88.5Z"/>
        <path class="cls-2" d="M398.46,172.69c-5.46,0-10.34-.93-14.65-2.79-4.31-1.86-7.7-4.63-10.17-8.31-2.47-3.68-3.71-8.17-3.71-13.49,0-6.01,1.46-10.68,4.4-14.01,2.93-3.33,6.88-5.78,11.86-7.34,4.97-1.57,10.47-2.7,16.48-3.39,5-.65,9.04-1.38,12.12-2.2,3.08-.82,5.34-1.88,6.77-3.17,1.43-1.29,2.14-2.96,2.14-4.99,0-2.93-1.01-5.29-3.02-7.08-2.02-1.79-5.14-2.68-9.37-2.68-4.69,0-8.21.97-10.56,2.91-2.35,1.94-3.67,4.52-3.98,7.75h-22.72c.2-4.62,1.66-8.98,4.36-13.08,2.7-4.1,6.74-7.42,12.12-9.95,5.38-2.53,12.2-3.8,20.46-3.8,5.3,0,9.91.39,13.81,1.16,3.9.77,7.28,2,10.14,3.69,4.33,2.44,7.53,5.71,9.6,9.84,2.07,4.12,3.1,8.94,3.1,14.46v41.67c0,3.18.25,5.69.76,7.53.51,1.84,1.3,3.11,2.37,3.8v1.34h-23.94c-.66-.94-1.24-2.26-1.72-3.95-.49-1.69-.85-3.68-1.11-5.96h-.31c-2.75,3.73-6.04,6.67-9.87,8.83-3.83,2.16-8.95,3.24-15.38,3.24ZM406.18,156.96c3.67,0,6.86-.68,9.56-2.05,2.7-1.37,4.81-3.23,6.31-5.59,1.5-2.36,2.26-5,2.26-7.94v-10.51c-1.17.7-2.54,1.3-4.09,1.83-1.56.52-3.2,1.01-4.93,1.45-1.73.45-3.52.87-5.35,1.27-3.62.75-6.62,1.59-8.99,2.53-2.37.94-4.13,2.15-5.28,3.62s-1.72,3.39-1.72,5.78.55,4.21,1.64,5.63c1.1,1.42,2.58,2.44,4.44,3.06,1.86.62,3.91.93,6.16.93Z"/>
        <path class="cls-2" d="M498.89,172.77c-8.01,0-14.93-1.17-20.77-3.5-5.84-2.33-10.39-5.59-13.65-9.76-3.26-4.17-5.1-8.97-5.51-14.39h23.18c.71,3.83,2.51,6.77,5.39,8.83,2.88,2.06,6.72,3.09,11.51,3.09,4.38,0,7.78-.83,10.17-2.5,2.4-1.66,3.6-3.94,3.6-6.82,0-2.43-.98-4.26-2.95-5.48-1.96-1.22-4.56-2.16-7.8-2.83-3.24-.67-6.8-1.35-10.67-2.05-3.72-.7-7.37-1.53-10.94-2.5-3.57-.97-6.78-2.33-9.64-4.1-2.86-1.76-5.12-4.15-6.81-7.16-1.68-3.01-2.52-6.87-2.52-11.59,0-5.56,1.55-10.22,4.67-13.98,3.11-3.75,7.32-6.58,12.62-8.5,5.3-1.91,11.22-2.87,17.75-2.87,7.75,0,14.23,1.01,19.43,3.02,5.2,2.01,9.26,4.82,12.16,8.42,2.91,3.6,4.72,7.76,5.43,12.49h-22.87c-.51-1.94-1.38-3.55-2.6-4.85-1.22-1.29-2.79-2.25-4.7-2.87-1.91-.62-4.19-.93-6.85-.93-3.72,0-6.71.72-8.95,2.16-2.25,1.44-3.37,3.45-3.37,6.04,0,2.04.92,3.58,2.75,4.62,1.84,1.04,4.3,1.86,7.38,2.46,3.08.6,6.54,1.24,10.36,1.94,3.72.65,7.46,1.47,11.21,2.46s7.18,2.42,10.29,4.29c3.11,1.86,5.61,4.4,7.5,7.6,1.89,3.21,2.83,7.37,2.83,12.48,0,5.86-1.63,10.78-4.9,14.76-3.26,3.98-7.73,6.97-13.39,8.98-5.66,2.01-12.11,3.02-19.35,3.02Z"/>
        <path class="cls-2" d="M564.67,197.74c-1.58,0-3.66-.03-6.23-.08-2.58-.05-4.9-.1-6.96-.15-2.07-.05-3.17-.1-3.33-.15v-18.86h.61c.97,0,2.35.02,4.13.07,1.78.05,3.31.07,4.59.07,2.4,0,4.33-.25,5.81-.75,1.48-.5,2.68-1.32,3.59-2.46.92-1.14,1.71-2.68,2.37-4.62l1.15-3.28-31.44-79.01h26.01l10.71,31.38c.97,2.78,1.87,5.81,2.71,9.09.84,3.28,1.58,6.39,2.22,9.32.64,2.93,1.34,6.29,2.1,10.06h.31c.87-3.78,1.64-7.14,2.33-10.1.69-2.96,1.46-6.07,2.33-9.35.87-3.28,1.76-6.29,2.68-9.02l10.25-31.38h24.55l-29.91,83.85c-2.24,6.26-4.7,11.24-7.38,14.94-2.68,3.7-5.87,6.36-9.56,7.98-3.7,1.61-8.25,2.42-13.65,2.42Z"/>
      </g>
      <g>
        <path class="cls-2" d="M102.53,53.66c3.59,9.88-1.91,20.95-1.91,20.95,0,0-11.32-4.94-14.92-14.82-3.6-9.88,1.9-20.94,1.9-20.94,0,0,11.32,4.94,14.92,14.81Z"/>
        <path class="cls-2" d="M42.29,76.88s2.9,12.01,11.99,17.26c9.1,5.26,20.96,1.76,20.96,1.76,0,0-2.9-12.01-12-17.27-9.11-5.25-20.96-1.75-20.96-1.75Z"/>
        <path class="cls-2" d="M32.02,135.14s9.94,7.33,20.29,5.51c10.35-1.82,17.18-12.12,17.18-12.12,0,0-9.94-7.34-20.29-5.51-10.36,1.84-17.18,12.12-17.18,12.12Z"/>
        <path class="cls-2" d="M61.6,186.38s12.34-.77,19.09-8.82c6.75-8.05,5.37-20.33,5.37-20.33,0,0-12.34.76-19.09,8.81-6.75,8.07-5.37,20.33-5.37,20.33Z"/>
        <path class="cls-2" d="M117.19,206.62s8.96-8.51,8.96-19.02c0-10.51-8.96-19.02-8.96-19.02,0,0-8.96,8.51-8.96,19.03.01,10.51,8.96,19.02,8.96,19.02Z"/>
        <path class="cls-2" d="M172.79,186.38s1.39-12.27-5.37-20.33c-6.75-8.05-19.09-8.81-19.09-8.81,0,0-1.39,12.28,5.37,20.33,6.77,8.04,19.09,8.81,19.09,8.81Z"/>
        <path class="cls-2" d="M202.37,135.14s-6.83-10.29-17.18-12.13c-10.34-1.83-20.28,5.52-20.28,5.52,0,0,6.83,10.3,17.18,12.13,10.36,1.81,20.29-5.53,20.29-5.53Z"/>
        <path class="cls-2" d="M192.11,76.88s-11.86-3.5-20.96,1.75c-9.1,5.25-12,17.27-12,17.27,0,0,11.86,3.5,20.96-1.75,9.1-5.27,12-17.27,12-17.27Z"/>
        <path class="cls-2" d="M146.78,38.85s-11.33,4.94-14.93,14.81c-3.6,9.88,1.91,20.95,1.91,20.95,0,0,11.34-4.94,14.93-14.81,3.57-9.89-1.91-20.94-1.91-20.94Z"/>
        <path class="cls-2" d="M122.79,112.88c-3.69-3.1-9.16-2.61-12.26,1.07-3.1,3.69-2.61,9.18,1.08,12.27,3.69,3.1,9.16,2.62,12.26-1.07,3.1-3.69,2.63-9.18-1.07-12.27Z"/>
        <path class="cls-10" d="M117.19,58.52s-9.37,8.92-9.37,19.92,9.37,19.92,9.37,19.92c0,0,9.38-8.92,9.38-19.92s-9.38-19.92-9.38-19.92Z"/>
        <path class="cls-1" d="M78.32,72.67s-1.45,12.85,5.63,21.29c7.07,8.43,19.98,9.23,19.98,9.23,0,0,1.45-12.85-5.63-21.28-7.07-8.43-19.98-9.23-19.98-9.23Z"/>
        <path class="cls-4" d="M57.63,108.51s7.16,10.78,17.99,12.68c10.84,1.92,21.24-5.77,21.24-5.77,0,0-7.16-10.78-17.99-12.69-10.84-1.91-21.25,5.78-21.25,5.78Z"/>
        <path class="cls-3" d="M64.82,149.25s12.41,3.66,21.94-1.85c9.53-5.51,12.57-18.08,12.57-18.08,0,0-12.41-3.65-21.94,1.85-9.53,5.5-12.56,18.08-12.56,18.08Z"/>
        <path class="cls-5" d="M96.51,175.85s11.86-5.18,15.62-15.52c3.76-10.34-2-21.93-2-21.93,0,0-11.85,5.18-15.62,15.52-3.77,10.34,1.99,21.93,1.99,21.93Z"/>
        <path class="cls-9" d="M137.89,175.85s5.75-11.59,1.99-21.93c-3.77-10.34-15.63-15.52-15.63-15.52,0,0-5.75,11.59-1.98,21.93,3.76,10.34,15.62,15.52,15.62,15.52Z"/>
        <path class="cls-7" d="M169.57,149.25s-3.04-12.58-12.57-18.08c-9.53-5.5-21.94-1.85-21.94-1.85,0,0,3.05,12.57,12.57,18.07,9.52,5.51,21.93,1.86,21.93,1.86Z"/>
        <path class="cls-6" d="M176.76,108.51s-10.42-7.68-21.25-5.77c-10.84,1.91-17.99,12.69-17.99,12.69,0,0,10.41,7.68,21.24,5.76,10.84-1.9,17.99-12.68,17.99-12.68Z"/>
        <path class="cls-8" d="M156.08,72.67s-12.92.82-19.99,9.23c-7.07,8.43-5.62,21.29-5.62,21.29,0,0,12.9-.81,19.98-9.24,7.08-8.43,5.64-21.28,5.64-21.28Z"/>
        <path class="cls-2" d="M117.19,25.21s-7.49,7.12-7.49,15.91,7.49,15.92,7.49,15.92c0,0,7.49-7.12,7.49-15.92s-7.49-15.91-7.49-15.91Z"/>
        <path class="cls-2" d="M57.15,47.07s-1.16,10.27,4.49,17c5.65,6.74,15.97,7.38,15.97,7.38,0,0,1.16-10.27-4.49-17.01-5.65-6.74-15.97-7.38-15.97-7.38Z"/>
        <path class="cls-2" d="M25.2,102.41s5.72,8.61,14.37,10.14c8.66,1.53,16.98-4.61,16.98-4.61,0,0-5.71-8.62-14.37-10.14-8.65-1.53-16.98,4.61-16.98,4.61Z"/>
        <path class="cls-2" d="M36.29,165.35s9.92,2.92,17.53-1.47c7.62-4.4,10.03-14.44,10.03-14.44,0,0-9.9-2.93-17.52,1.47-7.61,4.39-10.04,14.45-10.04,14.45Z"/>
        <path class="cls-2" d="M85.25,206.42s9.47-4.14,12.48-12.4c3.01-8.26-1.59-17.52-1.59-17.52,0,0-9.48,4.13-12.49,12.39-3.02,8.26,1.6,17.52,1.6,17.52Z"/>
        <path class="cls-2" d="M149.15,206.42s4.6-9.26,1.59-17.52c-3.01-8.25-12.47-12.4-12.47-12.4,0,0-4.6,9.26-1.6,17.52,3,8.26,12.49,12.4,12.49,12.4Z"/>
        <path class="cls-2" d="M198.1,165.35s-2.43-10.05-10.04-14.44c-7.61-4.4-17.53-1.48-17.53-1.48,0,0,2.42,10.05,10.04,14.45,7.6,4.4,17.53,1.47,17.53,1.47Z"/>
        <path class="cls-2" d="M209.2,102.41s-8.32-6.14-16.98-4.61c-8.66,1.53-14.38,10.14-14.38,10.14,0,0,8.31,6.14,16.99,4.61,8.65-1.51,14.37-10.14,14.37-10.14Z"/>
        <path class="cls-2" d="M177.25,47.07s-10.32.65-15.96,7.38c-5.65,6.73-4.5,17.01-4.5,17.01,0,0,10.31-.65,15.97-7.39,5.65-6.72,4.49-17,4.49-17Z"/>
        <path class="cls-2" d="M98.41,13.01s-5.51,7.46-4.14,15.23c1.36,7.77,9.09,12.9,9.09,12.9,0,0,5.51-7.46,4.14-15.23-1.36-7.76-9.09-12.89-9.09-12.89Z"/>
        <path class="cls-2" d="M63.09,25.86s-2.62,8.9,1.33,15.72c3.94,6.84,12.95,9.01,12.95,9.01,0,0,2.64-8.9-1.32-15.73-3.93-6.84-12.96-9.01-12.96-9.01Z"/>
        <path class="cls-2" d="M34.31,50.02s.58,9.26,6.62,14.32c6.04,5.08,15.26,4.03,15.26,4.03,0,0-.58-9.26-6.63-14.32-6.03-5.08-15.25-4.03-15.25-4.03Z"/>
        <path class="cls-2" d="M15.53,82.56s3.71,8.5,11.12,11.19c7.41,2.71,15.72-1.43,15.72-1.43,0,0-3.71-8.51-11.12-11.19-7.4-2.7-15.71,1.43-15.71,1.43Z"/>
        <path class="cls-2" d="M9.01,119.56s6.39,6.73,14.27,6.71c7.89,0,14.28-6.72,14.28-6.72,0,0-6.39-6.73-14.28-6.71-7.88,0-14.27,6.72-14.27,6.72Z"/>
        <path class="cls-2" d="M15.54,156.57s8.3,4.14,15.7,1.42c7.42-2.69,11.12-11.19,11.12-11.19,0,0-8.3-4.14-15.71-1.42-7.41,2.69-11.11,11.19-11.11,11.19Z"/>
        <path class="cls-2" d="M34.33,189.11s9.21,1.04,15.24-4.04c6.05-5.06,6.62-14.31,6.62-14.31,0,0-9.21-1.05-15.25,4.03-6.03,5.06-6.6,14.32-6.6,14.32Z"/>
        <path class="cls-2" d="M63.11,213.26s9.01-2.17,12.94-9c3.96-6.83,1.32-15.72,1.32-15.72,0,0-9.01,2.16-12.95,9.01-3.93,6.82-1.32,15.72-1.32,15.72Z"/>
        <path class="cls-2" d="M98.41,226.11s7.74-5.12,9.09-12.89c1.37-7.77-4.15-15.23-4.15-15.23,0,0-7.72,5.12-9.08,12.9-1.36,7.76,4.14,15.22,4.14,15.22Z"/>
        <path class="cls-2" d="M135.99,226.11s5.51-7.46,4.13-15.22c-1.36-7.77-9.1-12.89-9.1-12.89,0,0-5.51,7.44-4.12,15.21,1.37,7.76,9.09,12.89,9.09,12.89Z"/>
        <path class="cls-2" d="M171.29,213.26s2.64-8.9-1.33-15.72c-3.94-6.84-12.96-9-12.96-9,0,0-2.63,8.88,1.33,15.7,3.94,6.82,12.95,9.01,12.95,9.01Z"/>
        <path class="cls-2" d="M200.07,189.11s-.57-9.27-6.62-14.33c-6.03-5.08-15.26-4.02-15.26-4.02,0,0,.57,9.25,6.62,14.31,6.04,5.06,15.25,4.04,15.25,4.04Z"/>
        <path class="cls-2" d="M218.86,156.57s-3.69-8.51-11.12-11.2c-7.4-2.71-15.71,1.44-15.71,1.44,0,0,3.69,8.5,11.12,11.19,7.4,2.68,15.7-1.42,15.7-1.42Z"/>
        <path class="cls-2" d="M225.39,119.56s-6.4-6.73-14.28-6.72c-7.89-.01-14.27,6.72-14.27,6.72,0,0,6.37,6.73,14.27,6.71,7.88-.01,14.28-6.71,14.28-6.71Z"/>
        <path class="cls-2" d="M218.87,82.56s-8.31-4.14-15.71-1.43c-7.42,2.68-11.12,11.19-11.12,11.19,0,0,8.29,4.15,15.71,1.42,7.4-2.71,11.12-11.19,11.12-11.19Z"/>
        <path class="cls-2" d="M200.09,50.02s-9.22-1.05-15.26,4.03c-6.05,5.06-6.62,14.32-6.62,14.32,0,0,9.2,1.06,15.25-4.03,6.02-5.07,6.63-14.31,6.63-14.31Z"/>
        <path class="cls-2" d="M171.31,25.86s-9.04,2.17-12.97,9.01c-3.96,6.81-1.32,15.72-1.32,15.72,0,0,9.01-2.15,12.95-9.02,3.92-6.82,1.34-15.72,1.34-15.72Z"/>
        <path class="cls-2" d="M135.99,13s-7.75,5.13-9.1,12.9c-1.39,7.76,4.14,15.23,4.14,15.23,0,0,7.74-5.1,9.09-12.9,1.35-7.75-4.12-15.23-4.12-15.23Z"/>
        <path class="cls-2" d="M79.1,14.44s-3.26,6.57-1.13,12.42c2.13,5.87,8.85,8.79,8.85,8.79,0,0,3.26-6.57,1.13-12.43-2.13-5.86-8.84-8.79-8.84-8.79Z"/>
        <path class="cls-2" d="M20.74,63.41s1.71,7.13,7.11,10.25c5.4,3.11,12.43,1.04,12.43,1.04,0,0-1.72-7.12-7.12-10.24-5.38-3.12-12.42-1.05-12.42-1.05Z"/>
        <path class="cls-2" d="M7.49,138.45s5.9,4.37,12.03,3.28c6.15-1.08,10.2-7.19,10.2-7.19,0,0-5.9-4.34-12.04-3.27-6.14,1.07-10.2,7.17-10.2,7.17Z"/>
        <path class="cls-2" d="M45.59,204.44s7.32-.45,11.31-5.22c4.03-4.78,3.21-12.05,3.21-12.05,0,0-7.31.45-11.34,5.23-4,4.76-3.19,12.04-3.19,12.04Z"/>
        <path class="cls-2" d="M117.18,230.5s5.32-5.05,5.31-11.27c.01-6.25-5.29-11.3-5.29-11.3,0,0-5.31,5.04-5.31,11.29-.01,6.22,5.29,11.27,5.29,11.27Z"/>
        <path class="cls-2" d="M188.79,204.46s.83-7.3-3.17-12.06c-4.01-4.79-11.33-5.25-11.33-5.25,0,0-.82,7.27,3.19,12.06,3.99,4.77,11.31,5.25,11.31,5.25Z"/>
        <path class="cls-2" d="M226.89,138.47s-4.06-6.12-10.18-7.19c-6.14-1.1-12.05,3.25-12.05,3.25,0,0,4.05,6.11,10.2,7.2,6.13,1.09,12.03-3.25,12.03-3.25Z"/>
        <path class="cls-2" d="M213.66,63.44s-7.04-2.08-12.41,1.03c-5.43,3.1-7.15,10.23-7.15,10.23,0,0,7.03,2.08,12.43-1.04,5.4-3.1,7.13-10.22,7.13-10.22Z"/>
        <path class="cls-2" d="M155.31,14.45s-6.73,2.93-8.85,8.77c-2.15,5.86,1.09,12.44,1.09,12.44,0,0,6.73-2.93,8.86-8.8,2.15-5.86-1.1-12.41-1.1-12.41Z"/>
        <path class="cls-2" d="M117.19,0s-4.43,4.21-4.43,9.42,4.43,9.41,4.43,9.41c0,0,4.43-4.21,4.43-9.41,0-5.21-4.43-9.42-4.43-9.42Z"/>
        <path class="cls-2" d="M40.7,27.84s-.68,6.08,2.66,10.06c3.35,3.99,9.45,4.37,9.45,4.37,0,0,.68-6.08-2.66-10.06-3.34-3.99-9.44-4.37-9.44-4.37Z"/>
        <path class="cls-2" d="M0,98.34s3.38,5.1,8.51,6c5.12.9,10.04-2.73,10.04-2.73,0,0-3.38-5.1-8.51-6-5.12-.9-10.04,2.73-10.04,2.73Z"/>
        <path class="cls-2" d="M14.14,178.51s5.85,1.73,10.38-.88c4.5-2.6,5.93-8.54,5.93-8.54,0,0-5.86-1.73-10.37.87-4.51,2.6-5.94,8.54-5.94,8.54Z"/>
        <path class="cls-2" d="M76.5,230.83s5.6-2.43,7.38-7.34c1.78-4.88-.95-10.35-.95-10.35,0,0-5.6,2.45-7.38,7.33-1.77,4.89.95,10.36.95,10.36Z"/>
        <path class="cls-2" d="M157.9,230.83s2.72-5.47.93-10.37c-1.77-4.88-7.38-7.32-7.38-7.32,0,0-2.71,5.47-.94,10.36,1.79,4.89,7.39,7.33,7.39,7.33Z"/>
        <path class="cls-2" d="M220.26,178.51s-1.43-5.94-5.96-8.55c-4.49-2.6-10.36-.87-10.36-.87,0,0,1.44,5.94,5.94,8.55,4.51,2.59,10.37.87,10.37.87Z"/>
        <path class="cls-2" d="M234.4,98.34s-4.92-3.62-10.06-2.72c-5.12.9-8.49,6-8.49,6,0,0,4.91,3.63,10.05,2.73,5.12-.92,8.5-6.01,8.5-6.01Z"/>
        <path class="cls-2" d="M193.7,27.84s-6.1.38-9.46,4.38c-3.35,3.98-2.65,10.05-2.65,10.05,0,0,6.1-.38,9.45-4.37,3.34-3.99,2.66-10.06,2.66-10.06Z"/>
      </g>
    </g>
  </g>
</svg>